<svg width="1039" height="776.65" viewBox="-2 -2 1039 776.65" xmlns="http://www.w3.org/2000/svg">
  <g id="svgGroup" stroke-linecap="round" fill-rule="nonzero" fill="#ffffff" stroke="#ffffff" stroke-width="0.5">
      <path d="M309.375 80.175L275.625 80.175L275.625 74.400L309.375 74.400L309.375 80.175ZM349.875 50.850L325.125 50.850L325.125 45.450L349.875 45.450L349.875 50.850ZM394.875 50.850L370.125 50.850L370.125 45.450L394.875 45.450L394.875 50.850ZM439.875 50.850L415.125 50.850L415.125 45.450L439.875 45.450L439.875 50.850ZM479.025 55.650L479.025 55.650Q476.850 55.650 475.050 54.900Q473.250 54.150 471.712 53.175Q470.175 52.200 468.712 51.488Q467.250 50.775 465.750 50.775L465.750 50.775Q463.875 50.775 462.675 52.088Q461.475 53.400 461.250 55.650L461.250 55.650L455.925 55.650Q456.375 50.325 459.038 47.738Q461.700 45.150 465.975 45.150L465.975 45.150Q468.150 45.150 469.950 45.863Q471.750 46.575 473.288 47.550Q474.825 48.525 476.288 49.275Q477.750 50.025 479.250 50.025L479.250 50.025Q481.125 50.025 482.325 48.675Q483.525 47.325 483.750 45.150L483.750 45.150L489.075 45.150Q488.625 50.475 485.962 53.063Q483.300 55.650 479.025 55.650ZM524.025 55.650L524.025 55.650Q521.850 55.650 520.050 54.900Q518.250 54.150 516.712 53.175Q515.175 52.200 513.712 51.488Q512.250 50.775 510.750 50.775L510.750 50.775Q508.875 50.775 507.675 52.088Q506.475 53.400 506.250 55.650L506.250 55.650L500.925 55.650Q501.375 50.325 504.038 47.738Q506.700 45.150 510.975 45.150L510.975 45.150Q513.150 45.150 514.950 45.863Q516.750 46.575 518.288 47.550Q519.825 48.525 521.288 49.275Q522.750 50.025 524.250 50.025L524.250 50.025Q526.125 50.025 527.325 48.675Q528.525 47.325 528.750 45.150L528.750 45.150L534.075 45.150Q533.625 50.475 530.962 53.063Q528.300 55.650 524.025 55.650ZM572.775 88.275L566.100 88.275Q562.200 83.925 558.862 78.563Q555.525 73.200 553.500 66.413Q551.475 59.625 551.475 50.925L551.475 50.925Q551.475 42.225 553.500 35.438Q555.525 28.650 558.862 23.288Q562.200 17.925 566.100 13.575L566.100 13.575L572.775 13.575L572.775 14.250Q568.275 19.125 564.900 24.638Q561.525 30.150 559.650 36.600Q557.775 43.050 557.775 50.925L557.775 50.925Q557.775 58.800 559.650 65.250Q561.525 71.700 564.900 77.213Q568.275 82.725 572.775 87.600L572.775 87.600L572.775 88.275ZM614.025 55.650L614.025 55.650Q611.850 55.650 610.050 54.900Q608.250 54.150 606.712 53.175Q605.175 52.200 603.712 51.488Q602.250 50.775 600.750 50.775L600.750 50.775Q598.875 50.775 597.675 52.088Q596.475 53.400 596.250 55.650L596.250 55.650L590.925 55.650Q591.375 50.325 594.038 47.738Q596.700 45.150 600.975 45.150L600.975 45.150Q603.150 45.150 604.950 45.863Q606.750 46.575 608.288 47.550Q609.825 48.525 611.288 49.275Q612.750 50.025 614.250 50.025L614.250 50.025Q616.125 50.025 617.325 48.675Q618.525 47.325 618.750 45.150L618.750 45.150L624.075 45.150Q623.625 50.475 620.962 53.063Q618.300 55.650 614.025 55.650ZM659.025 55.650L659.025 55.650Q656.850 55.650 655.050 54.900Q653.250 54.150 651.712 53.175Q650.175 52.200 648.712 51.488Q647.250 50.775 645.750 50.775L645.750 50.775Q643.875 50.775 642.675 52.088Q641.475 53.400 641.250 55.650L641.250 55.650L635.925 55.650Q636.375 50.325 639.038 47.738Q641.700 45.150 645.975 45.150L645.975 45.150Q648.150 45.150 649.950 45.863Q651.750 46.575 653.288 47.550Q654.825 48.525 656.288 49.275Q657.750 50.025 659.250 50.025L659.250 50.025Q661.125 50.025 662.325 48.675Q663.525 47.325 663.750 45.150L663.750 45.150L669.075 45.150Q668.625 50.475 665.962 53.063Q663.300 55.650 659.025 55.650ZM709.875 50.850L685.125 50.850L685.125 45.450L709.875 45.450L709.875 50.850ZM759.375 80.175L725.625 80.175L725.625 74.400L759.375 74.400L759.375 80.175ZM787.500 74.550L787.500 74.550Q785.175 74.550 783.525 72.975Q781.875 71.400 781.875 69.075L781.875 69.075Q781.875 66.825 783.525 65.250Q785.175 63.675 787.500 63.675L787.500 63.675Q789.825 63.675 791.475 65.250Q793.125 66.825 793.125 69.075L793.125 69.075Q793.125 71.400 791.475 72.975Q789.825 74.550 787.500 74.550Z" />
      <path d="M219.375 155.175L185.625 155.175L185.625 149.400L219.375 149.400L219.375 155.175ZM261.600 163.275L254.400 163.275Q249 163.275 245.813 160.613Q242.625 157.950 242.625 152.100L242.625 152.100Q242.625 149.250 243.037 146.963Q243.450 144.675 243.863 142.050Q244.275 139.425 244.275 135.750L244.275 135.750Q244.275 132.525 242.588 130.613Q240.900 128.700 237.075 128.700L237.075 128.700L233.550 128.700L233.550 123.150L237.075 123.150Q240.900 123.150 242.588 121.238Q244.275 119.325 244.275 116.100L244.275 116.100Q244.275 112.350 243.863 109.763Q243.450 107.175 243.037 104.888Q242.625 102.600 242.625 99.750L242.625 99.750Q242.625 93.900 245.813 91.238Q249 88.575 254.400 88.575L254.400 88.575L261.600 88.575L261.600 94.125L255.075 94.125Q252 94.125 250.350 95.588Q248.700 97.050 248.700 100.425L248.700 100.425Q248.700 103.425 249.113 105.638Q249.525 107.850 249.938 110.138Q250.350 112.425 250.350 115.650L250.350 115.650Q250.350 119.625 248.625 122.213Q246.900 124.800 244.125 125.775L244.125 125.775L244.125 126.075Q246.900 127.050 248.625 129.638Q250.350 132.225 250.350 136.200L250.350 136.200Q250.350 139.425 249.938 141.713Q249.525 144 249.113 146.213Q248.700 148.425 248.700 151.425L248.700 151.425Q248.700 154.800 250.350 156.263Q252 157.725 255.075 157.725L255.075 157.725L261.600 157.725L261.600 163.275ZM648.900 163.275L642.225 163.275L642.225 162.600Q646.725 157.725 650.100 152.213Q653.475 146.700 655.350 140.250Q657.225 133.800 657.225 125.925L657.225 125.925Q657.225 118.050 655.350 111.600Q653.475 105.150 650.100 99.638Q646.725 94.125 642.225 89.250L642.225 89.250L642.225 88.575L648.900 88.575Q652.800 92.925 656.138 98.288Q659.475 103.650 661.500 110.438Q663.525 117.225 663.525 125.925L663.525 125.925Q663.525 134.625 661.500 141.412Q659.475 148.200 656.138 153.563Q652.800 158.925 648.900 163.275L648.900 163.275ZM828.900 163.275L822.225 163.275L822.225 162.600Q826.725 157.725 830.100 152.213Q833.475 146.700 835.350 140.250Q837.225 133.800 837.225 125.925L837.225 125.925Q837.225 118.050 835.350 111.600Q833.475 105.150 830.100 99.638Q826.725 94.125 822.225 89.250L822.225 89.250L822.225 88.575L828.900 88.575Q832.800 92.925 836.138 98.288Q839.475 103.650 841.500 110.438Q843.525 117.225 843.525 125.925L843.525 125.925Q843.525 134.625 841.500 141.412Q839.475 148.200 836.138 153.563Q832.800 158.925 828.900 163.275L828.900 163.275Z" />
      <path d="M108.300 233.550L102.300 233.550L108.900 213.375L117.225 213.375L108.300 233.550ZM288.900 238.275L282.225 238.275L282.225 237.600Q286.725 232.725 290.100 227.213Q293.475 221.700 295.350 215.250Q297.225 208.800 297.225 200.925L297.225 200.925Q297.225 193.050 295.350 186.600Q293.475 180.150 290.100 174.638Q286.725 169.125 282.225 164.250L282.225 164.250L282.225 163.575L288.900 163.575Q292.800 167.925 296.137 173.288Q299.475 178.650 301.500 185.438Q303.525 192.225 303.525 200.925L303.525 200.925Q303.525 209.625 301.500 216.412Q299.475 223.200 296.137 228.563Q292.800 233.925 288.900 238.275L288.900 238.275ZM394.875 200.850L370.125 200.850L370.125 195.450L394.875 195.450L394.875 200.850ZM434.025 205.650L434.025 205.650Q431.850 205.650 430.050 204.900Q428.250 204.150 426.712 203.175Q425.175 202.200 423.712 201.488Q422.250 200.775 420.750 200.775L420.750 200.775Q418.875 200.775 417.675 202.088Q416.475 203.400 416.250 205.650L416.250 205.650L410.925 205.650Q411.375 200.325 414.038 197.738Q416.700 195.150 420.975 195.150L420.975 195.150Q423.150 195.150 424.950 195.863Q426.750 196.575 428.288 197.550Q429.825 198.525 431.288 199.275Q432.750 200.025 434.250 200.025L434.250 200.025Q436.125 200.025 437.325 198.675Q438.525 197.325 438.750 195.150L438.750 195.150L444.075 195.150Q443.625 200.475 440.962 203.063Q438.300 205.650 434.025 205.650ZM479.025 205.650L479.025 205.650Q476.850 205.650 475.050 204.900Q473.250 204.150 471.712 203.175Q470.175 202.200 468.712 201.488Q467.250 200.775 465.750 200.775L465.750 200.775Q463.875 200.775 462.675 202.088Q461.475 203.400 461.250 205.650L461.250 205.650L455.925 205.650Q456.375 200.325 459.038 197.738Q461.700 195.150 465.975 195.150L465.975 195.150Q468.150 195.150 469.950 195.863Q471.750 196.575 473.288 197.550Q474.825 198.525 476.288 199.275Q477.750 200.025 479.250 200.025L479.250 200.025Q481.125 200.025 482.325 198.675Q483.525 197.325 483.750 195.150L483.750 195.150L489.075 195.150Q488.625 200.475 485.962 203.063Q483.300 205.650 479.025 205.650ZM529.875 200.850L505.125 200.850L505.125 195.450L529.875 195.450L529.875 200.850ZM617.775 238.275L611.100 238.275Q607.200 233.925 603.862 228.563Q600.525 223.200 598.500 216.412Q596.475 209.625 596.475 200.925L596.475 200.925Q596.475 192.225 598.500 185.438Q600.525 178.650 603.862 173.288Q607.200 167.925 611.100 163.575L611.100 163.575L617.775 163.575L617.775 164.250Q613.275 169.125 609.900 174.638Q606.525 180.150 604.650 186.600Q602.775 193.050 602.775 200.925L602.775 200.925Q602.775 208.800 604.650 215.250Q606.525 221.700 609.900 227.213Q613.275 232.725 617.775 237.600L617.775 237.600L617.775 238.275ZM693.300 233.550L687.300 233.550L693.900 213.375L702.225 213.375L693.300 233.550ZM754.875 200.850L730.125 200.850L730.125 195.450L754.875 195.450L754.875 200.850ZM790.950 195.075L784.050 195.075L784.050 171.900L790.950 171.900L790.950 195.075ZM873.900 238.275L867.225 238.275L867.225 237.600Q871.725 232.725 875.100 227.213Q878.475 221.700 880.350 215.250Q882.225 208.800 882.225 200.925L882.225 200.925Q882.225 193.050 880.350 186.600Q878.475 180.150 875.100 174.638Q871.725 169.125 867.225 164.250L867.225 164.250L867.225 163.575L873.900 163.575Q877.800 167.925 881.138 173.288Q884.475 178.650 886.500 185.438Q888.525 192.225 888.525 200.925L888.525 200.925Q888.525 209.625 886.500 216.412Q884.475 223.200 881.138 228.563Q877.800 233.925 873.900 238.275L873.900 238.275ZM939.375 230.175L905.625 230.175L905.625 224.400L939.375 224.400L939.375 230.175Z" />
      <path d="M77.775 313.275L71.100 313.275Q67.200 308.925 63.862 303.563Q60.525 298.200 58.500 291.412Q56.475 284.625 56.475 275.925L56.475 275.925Q56.475 267.225 58.500 260.438Q60.525 253.650 63.862 248.287Q67.200 242.925 71.100 238.575L71.100 238.575L77.775 238.575L77.775 239.250Q73.275 244.125 69.900 249.637Q66.525 255.150 64.650 261.600Q62.775 268.050 62.775 275.925L62.775 275.925Q62.775 283.800 64.650 290.250Q66.525 296.700 69.900 302.212Q73.275 307.725 77.775 312.600L77.775 312.600L77.775 313.275ZM210.375 253.275L210.375 259.200L194.625 251.325L194.625 244.875L210.375 253.275ZM259.875 275.850L235.125 275.850L235.125 270.450L259.875 270.450L259.875 275.850ZM288.300 308.550L282.300 308.550L288.900 288.375L297.225 288.375L288.300 308.550ZM354.375 305.175L320.625 305.175L320.625 299.400L354.375 299.400L354.375 305.175ZM382.500 299.550L382.500 299.550Q380.175 299.550 378.525 297.975Q376.875 296.400 376.875 294.075L376.875 294.075Q376.875 291.825 378.525 290.250Q380.175 288.675 382.500 288.675L382.500 288.675Q384.825 288.675 386.475 290.250Q388.125 291.825 388.125 294.075L388.125 294.075Q388.125 296.400 386.475 297.975Q384.825 299.550 382.500 299.550ZM427.500 299.550L427.500 299.550Q425.175 299.550 423.525 297.975Q421.875 296.400 421.875 294.075L421.875 294.075Q421.875 291.825 423.525 290.250Q425.175 288.675 427.500 288.675L427.500 288.675Q429.825 288.675 431.475 290.250Q433.125 291.825 433.125 294.075L433.125 294.075Q433.125 296.400 431.475 297.975Q429.825 299.550 427.500 299.550ZM480.375 253.275L480.375 259.200L464.625 251.325L464.625 244.875L480.375 253.275ZM517.500 299.550L517.500 299.550Q515.175 299.550 513.525 297.975Q511.875 296.400 511.875 294.075L511.875 294.075Q511.875 291.825 513.525 290.250Q515.175 288.675 517.500 288.675L517.500 288.675Q519.825 288.675 521.475 290.250Q523.125 291.825 523.125 294.075L523.125 294.075Q523.125 296.400 521.475 297.975Q519.825 299.550 517.500 299.550ZM558.300 308.550L552.300 308.550L558.900 288.375L567.225 288.375L558.300 308.550ZM648.900 313.275L642.225 313.275L642.225 312.600Q646.725 307.725 650.100 302.212Q653.475 296.700 655.350 290.250Q657.225 283.800 657.225 275.925L657.225 275.925Q657.225 268.050 655.350 261.600Q653.475 255.150 650.100 249.637Q646.725 244.125 642.225 239.250L642.225 239.250L642.225 238.575L648.900 238.575Q652.800 242.925 656.138 248.287Q659.475 253.650 661.500 260.438Q663.525 267.225 663.525 275.925L663.525 275.925Q663.525 284.625 661.500 291.412Q659.475 298.200 656.138 303.563Q652.800 308.925 648.900 313.275L648.900 313.275ZM709.875 275.850L685.125 275.850L685.125 270.450L709.875 270.450L709.875 275.850ZM754.875 275.850L730.125 275.850L730.125 270.450L754.875 270.450L754.875 275.850ZM835.950 270.075L829.050 270.075L829.050 246.900L835.950 246.900L835.950 270.075ZM894.375 305.175L860.625 305.175L860.625 299.400L894.375 299.400L894.375 305.175ZM918.300 308.550L912.300 308.550L918.900 288.375L927.225 288.375L918.300 308.550ZM963.900 313.275L957.225 313.275L957.225 312.600Q961.725 307.725 965.100 302.212Q968.475 296.700 970.350 290.250Q972.225 283.800 972.225 275.925L972.225 275.925Q972.225 268.050 970.350 261.600Q968.475 255.150 965.100 249.637Q961.725 244.125 957.225 239.250L957.225 239.250L957.225 238.575L963.900 238.575Q967.800 242.925 971.138 248.287Q974.475 253.650 976.500 260.438Q978.525 267.225 978.525 275.925L978.525 275.925Q978.525 284.625 976.500 291.412Q974.475 298.200 971.138 303.563Q967.800 308.925 963.900 313.275L963.900 313.275Z" />
      <path d="M32.775 388.275L26.100 388.275Q22.200 383.925 18.863 378.563Q15.525 373.200 13.500 366.412Q11.475 359.625 11.475 350.925L11.475 350.925Q11.475 342.225 13.500 335.438Q15.525 328.650 18.863 323.287Q22.200 317.925 26.100 313.575L26.100 313.575L32.775 313.575L32.775 314.250Q28.275 319.125 24.900 324.637Q21.525 330.150 19.650 336.600Q17.775 343.050 17.775 350.925L17.775 350.925Q17.775 358.800 19.650 365.250Q21.525 371.700 24.900 377.212Q28.275 382.725 32.775 387.600L32.775 387.600L32.775 388.275ZM120.375 328.275L120.375 334.200L104.625 326.325L104.625 319.875L120.375 328.275ZM219.375 380.175L185.625 380.175L185.625 374.400L219.375 374.400L219.375 380.175ZM243.900 388.275L237.225 388.275L237.225 387.600Q241.725 382.725 245.100 377.212Q248.475 371.700 250.350 365.250Q252.225 358.800 252.225 350.925L252.225 350.925Q252.225 343.050 250.350 336.600Q248.475 330.150 245.100 324.637Q241.725 319.125 237.225 314.250L237.225 314.250L237.225 313.575L243.900 313.575Q247.800 317.925 251.137 323.287Q254.475 328.650 256.500 335.438Q258.525 342.225 258.525 350.925L258.525 350.925Q258.525 359.625 256.500 366.412Q254.475 373.200 251.137 378.563Q247.800 383.925 243.900 388.275L243.900 388.275ZM392.775 388.275L386.100 388.275Q382.200 383.925 378.863 378.563Q375.525 373.200 373.500 366.412Q371.475 359.625 371.475 350.925L371.475 350.925Q371.475 342.225 373.500 335.438Q375.525 328.650 378.863 323.287Q382.200 317.925 386.100 313.575L386.100 313.575L392.775 313.575L392.775 314.250Q388.275 319.125 384.900 324.637Q381.525 330.150 379.650 336.600Q377.775 343.050 377.775 350.925L377.775 350.925Q377.775 358.800 379.650 365.250Q381.525 371.700 384.900 377.212Q388.275 382.725 392.775 387.600L392.775 387.600L392.775 388.275ZM529.875 350.850L505.125 350.850L505.125 345.450L529.875 345.450L529.875 350.850ZM569.025 355.650L569.025 355.650Q566.850 355.650 565.050 354.900Q563.250 354.150 561.712 353.175Q560.175 352.200 558.712 351.487Q557.250 350.775 555.750 350.775L555.750 350.775Q553.875 350.775 552.675 352.087Q551.475 353.400 551.250 355.650L551.250 355.650L545.925 355.650Q546.375 350.325 549.038 347.737Q551.700 345.150 555.975 345.150L555.975 345.150Q558.150 345.150 559.950 345.862Q561.750 346.575 563.288 347.550Q564.825 348.525 566.288 349.275Q567.750 350.025 569.250 350.025L569.250 350.025Q571.125 350.025 572.325 348.675Q573.525 347.325 573.750 345.150L573.750 345.150L579.075 345.150Q578.625 350.475 575.962 353.063Q573.300 355.650 569.025 355.650ZM617.775 388.275L611.100 388.275Q607.200 383.925 603.862 378.563Q600.525 373.200 598.500 366.412Q596.475 359.625 596.475 350.925L596.475 350.925Q596.475 342.225 598.500 335.438Q600.525 328.650 603.862 323.287Q607.200 317.925 611.100 313.575L611.100 313.575L617.775 313.575L617.775 314.250Q613.275 319.125 609.900 324.637Q606.525 330.150 604.650 336.600Q602.775 343.050 602.775 350.925L602.775 350.925Q602.775 358.800 604.650 365.250Q606.525 371.700 609.900 377.212Q613.275 382.725 617.775 387.600L617.775 387.600L617.775 388.275ZM709.875 350.850L685.125 350.850L685.125 345.450L709.875 345.450L709.875 350.850ZM759.375 380.175L725.625 380.175L725.625 374.400L759.375 374.400L759.375 380.175ZM840.375 328.275L840.375 334.200L824.625 326.325L824.625 319.875L840.375 328.275ZM873.300 383.550L867.300 383.550L873.900 363.375L882.225 363.375L873.300 383.550ZM1005.600 388.275L998.400 388.275L998.400 382.725L1004.925 382.725Q1008 382.725 1009.650 381.262Q1011.300 379.800 1011.300 376.425L1011.300 376.425Q1011.300 373.425 1010.888 371.212Q1010.475 369 1010.063 366.712Q1009.650 364.425 1009.650 361.200L1009.650 361.200Q1009.650 357.225 1011.375 354.637Q1013.100 352.050 1015.875 351.075L1015.875 351.075L1015.875 350.775Q1013.100 349.800 1011.375 347.212Q1009.650 344.625 1009.650 340.650L1009.650 340.650Q1009.650 337.425 1010.063 335.137Q1010.475 332.850 1010.888 330.637Q1011.300 328.425 1011.300 325.425L1011.300 325.425Q1011.300 322.050 1009.650 320.587Q1008 319.125 1004.925 319.125L1004.925 319.125L998.400 319.125L998.400 313.575L1005.600 313.575Q1011 313.575 1014.188 316.237Q1017.375 318.900 1017.375 324.750L1017.375 324.750Q1017.375 327.600 1016.962 329.887Q1016.550 332.175 1016.138 334.762Q1015.725 337.350 1015.725 341.100L1015.725 341.100Q1015.725 344.325 1017.413 346.237Q1019.100 348.150 1022.925 348.150L1022.925 348.150L1026.450 348.150L1026.450 353.700L1022.925 353.700Q1019.100 353.700 1017.413 355.612Q1015.725 357.525 1015.725 360.750L1015.725 360.750Q1015.725 364.425 1016.138 367.050Q1016.550 369.675 1016.962 371.962Q1017.375 374.250 1017.375 377.100L1017.375 377.100Q1017.375 382.950 1014.188 385.612Q1011 388.275 1005.600 388.275L1005.600 388.275Z" />
      <path d="M32.775 463.275L26.100 463.275Q22.200 458.925 18.863 453.563Q15.525 448.200 13.500 441.412Q11.475 434.625 11.475 425.925L11.475 425.925Q11.475 417.225 13.500 410.438Q15.525 403.650 18.863 398.287Q22.200 392.925 26.100 388.575L26.100 388.575L32.775 388.575L32.775 389.250Q28.275 394.125 24.900 399.637Q21.525 405.150 19.650 411.600Q17.775 418.050 17.775 425.925L17.775 425.925Q17.775 433.800 19.650 440.250Q21.525 446.700 24.900 452.212Q28.275 457.725 32.775 462.600L32.775 462.600L32.775 463.275ZM84.375 455.175L50.625 455.175L50.625 449.400L84.375 449.400L84.375 455.175ZM124.875 425.850L100.125 425.850L100.125 420.450L124.875 420.450L124.875 425.850ZM264.375 455.175L230.625 455.175L230.625 449.400L264.375 449.400L264.375 455.175ZM389.025 430.650L389.025 430.650Q386.850 430.650 385.050 429.900Q383.250 429.150 381.712 428.175Q380.175 427.200 378.712 426.487Q377.250 425.775 375.750 425.775L375.750 425.775Q373.875 425.775 372.675 427.087Q371.475 428.400 371.250 430.650L371.250 430.650L365.925 430.650Q366.375 425.325 369.038 422.737Q371.700 420.150 375.975 420.150L375.975 420.150Q378.150 420.150 379.950 420.862Q381.750 421.575 383.288 422.550Q384.825 423.525 386.288 424.275Q387.750 425.025 389.250 425.025L389.250 425.025Q391.125 425.025 392.325 423.675Q393.525 422.325 393.750 420.150L393.750 420.150L399.075 420.150Q398.625 425.475 395.962 428.063Q393.300 430.650 389.025 430.650ZM444.375 455.175L410.625 455.175L410.625 449.400L444.375 449.400L444.375 455.175ZM484.875 425.850L460.125 425.850L460.125 420.450L484.875 420.450L484.875 425.850ZM524.025 430.650L524.025 430.650Q521.850 430.650 520.050 429.900Q518.250 429.150 516.712 428.175Q515.175 427.200 513.712 426.487Q512.250 425.775 510.750 425.775L510.750 425.775Q508.875 425.775 507.675 427.087Q506.475 428.400 506.250 430.650L506.250 430.650L500.925 430.650Q501.375 425.325 504.038 422.737Q506.700 420.150 510.975 420.150L510.975 420.150Q513.150 420.150 514.950 420.862Q516.750 421.575 518.288 422.550Q519.825 423.525 521.288 424.275Q522.750 425.025 524.250 425.025L524.250 425.025Q526.125 425.025 527.325 423.675Q528.525 422.325 528.750 420.150L528.750 420.150L534.075 420.150Q533.625 425.475 530.962 428.063Q528.300 430.650 524.025 430.650ZM569.025 430.650L569.025 430.650Q566.850 430.650 565.050 429.900Q563.250 429.150 561.712 428.175Q560.175 427.200 558.712 426.487Q557.250 425.775 555.750 425.775L555.750 425.775Q553.875 425.775 552.675 427.087Q551.475 428.400 551.250 430.650L551.250 430.650L545.925 430.650Q546.375 425.325 549.038 422.737Q551.700 420.150 555.975 420.150L555.975 420.150Q558.150 420.150 559.950 420.862Q561.750 421.575 563.288 422.550Q564.825 423.525 566.288 424.275Q567.750 425.025 569.250 425.025L569.250 425.025Q571.125 425.025 572.325 423.675Q573.525 422.325 573.750 420.150L573.750 420.150L579.075 420.150Q578.625 425.475 575.962 428.063Q573.300 430.650 569.025 430.650ZM614.025 430.650L614.025 430.650Q611.850 430.650 610.050 429.900Q608.250 429.150 606.712 428.175Q605.175 427.200 603.712 426.487Q602.250 425.775 600.750 425.775L600.750 425.775Q598.875 425.775 597.675 427.087Q596.475 428.400 596.250 430.650L596.250 430.650L590.925 430.650Q591.375 425.325 594.038 422.737Q596.700 420.150 600.975 420.150L600.975 420.150Q603.150 420.150 604.950 420.862Q606.750 421.575 608.288 422.550Q609.825 423.525 611.288 424.275Q612.750 425.025 614.250 425.025L614.250 425.025Q616.125 425.025 617.325 423.675Q618.525 422.325 618.750 420.150L618.750 420.150L624.075 420.150Q623.625 425.475 620.962 428.063Q618.300 430.650 614.025 430.650ZM659.025 430.650L659.025 430.650Q656.850 430.650 655.050 429.900Q653.250 429.150 651.712 428.175Q650.175 427.200 648.712 426.487Q647.250 425.775 645.750 425.775L645.750 425.775Q643.875 425.775 642.675 427.087Q641.475 428.400 641.250 430.650L641.250 430.650L635.925 430.650Q636.375 425.325 639.038 422.737Q641.700 420.150 645.975 420.150L645.975 420.150Q648.150 420.150 649.950 420.862Q651.750 421.575 653.288 422.550Q654.825 423.525 656.288 424.275Q657.750 425.025 659.250 425.025L659.250 425.025Q661.125 425.025 662.325 423.675Q663.525 422.325 663.750 420.150L663.750 420.150L669.075 420.150Q668.625 425.475 665.962 428.063Q663.300 430.650 659.025 430.650ZM705.375 403.275L705.375 409.200L689.625 401.325L689.625 394.875L705.375 403.275ZM738.300 458.550L732.300 458.550L738.900 438.375L747.225 438.375L738.300 458.550ZM873.300 458.550L867.300 458.550L873.900 438.375L882.225 438.375L873.300 458.550ZM925.950 420.075L919.050 420.075L919.050 396.900L925.950 396.900L925.950 420.075ZM1008.900 463.275L1002.225 463.275L1002.225 462.600Q1006.725 457.725 1010.100 452.212Q1013.475 446.700 1015.350 440.250Q1017.225 433.800 1017.225 425.925L1017.225 425.925Q1017.225 418.050 1015.350 411.600Q1013.475 405.150 1010.100 399.637Q1006.725 394.125 1002.225 389.250L1002.225 389.250L1002.225 388.575L1008.900 388.575Q1012.800 392.925 1016.138 398.287Q1019.475 403.650 1021.500 410.438Q1023.525 417.225 1023.525 425.925L1023.525 425.925Q1023.525 434.625 1021.500 441.412Q1019.475 448.200 1016.138 453.563Q1012.800 458.925 1008.900 463.275L1008.900 463.275Z" />
      <path d="M120.375 478.275L120.375 484.200L104.625 476.325L104.625 469.875L120.375 478.275ZM164.025 505.650L164.025 505.650Q161.850 505.650 160.050 504.900Q158.250 504.150 156.713 503.175Q155.175 502.200 153.713 501.487Q152.250 500.775 150.750 500.775L150.750 500.775Q148.875 500.775 147.675 502.087Q146.475 503.400 146.250 505.650L146.250 505.650L140.925 505.650Q141.375 500.325 144.037 497.737Q146.700 495.150 150.975 495.150L150.975 495.150Q153.150 495.150 154.950 495.862Q156.750 496.575 158.287 497.550Q159.825 498.525 161.287 499.275Q162.750 500.025 164.250 500.025L164.250 500.025Q166.125 500.025 167.325 498.675Q168.525 497.325 168.750 495.150L168.750 495.150L174.075 495.150Q173.625 500.475 170.963 503.063Q168.300 505.650 164.025 505.650ZM259.875 500.850L235.125 500.850L235.125 495.450L259.875 495.450L259.875 500.850ZM280.650 496.350L274.050 496.350L289.575 471.900L295.425 471.900L310.950 496.350L304.350 496.350L292.650 477.750L292.350 477.750L280.650 496.350ZM347.775 538.275L341.100 538.275Q337.200 533.925 333.863 528.563Q330.525 523.200 328.500 516.413Q326.475 509.625 326.475 500.925L326.475 500.925Q326.475 492.225 328.500 485.438Q330.525 478.650 333.863 473.287Q337.200 467.925 341.100 463.575L341.100 463.575L347.775 463.575L347.775 464.250Q343.275 469.125 339.900 474.637Q336.525 480.150 334.650 486.600Q332.775 493.050 332.775 500.925L332.775 500.925Q332.775 508.800 334.650 515.250Q336.525 521.700 339.900 527.212Q343.275 532.725 347.775 537.600L347.775 537.600L347.775 538.275ZM579.375 530.175L545.625 530.175L545.625 524.400L579.375 524.400L579.375 530.175ZM624.375 530.175L590.625 530.175L590.625 524.400L624.375 524.400L624.375 530.175ZM652.500 494.925L652.500 494.925Q650.175 494.925 648.525 493.350Q646.875 491.775 646.875 489.450L646.875 489.450Q646.875 487.200 648.525 485.625Q650.175 484.050 652.500 484.050L652.500 484.050Q654.825 484.050 656.475 485.625Q658.125 487.200 658.125 489.450L658.125 489.450Q658.125 491.775 656.475 493.350Q654.825 494.925 652.500 494.925ZM648.300 533.550L642.300 533.550L648.900 513.375L657.225 513.375L648.300 533.550ZM709.875 500.850L685.125 500.850L685.125 495.450L709.875 495.450L709.875 500.850ZM738.300 533.550L732.300 533.550L738.900 513.375L747.225 513.375L738.300 533.550ZM797.775 538.275L791.100 538.275Q787.200 533.925 783.862 528.563Q780.525 523.200 778.500 516.413Q776.475 509.625 776.475 500.925L776.475 500.925Q776.475 492.225 778.500 485.438Q780.525 478.650 783.862 473.287Q787.200 467.925 791.100 463.575L791.100 463.575L797.775 463.575L797.775 464.250Q793.275 469.125 789.900 474.637Q786.525 480.150 784.650 486.600Q782.775 493.050 782.775 500.925L782.775 500.925Q782.775 508.800 784.650 515.250Q786.525 521.700 789.900 527.212Q793.275 532.725 797.775 537.600L797.775 537.600L797.775 538.275ZM842.775 538.275L836.100 538.275Q832.200 533.925 828.862 528.563Q825.525 523.200 823.500 516.413Q821.475 509.625 821.475 500.925L821.475 500.925Q821.475 492.225 823.500 485.438Q825.525 478.650 828.862 473.287Q832.200 467.925 836.100 463.575L836.100 463.575L842.775 463.575L842.775 464.250Q838.275 469.125 834.900 474.637Q831.525 480.150 829.650 486.600Q827.775 493.050 827.775 500.925L827.775 500.925Q827.775 508.800 829.650 515.250Q831.525 521.700 834.900 527.212Q838.275 532.725 842.775 537.600L842.775 537.600L842.775 538.275ZM887.775 538.275L881.100 538.275Q877.200 533.925 873.862 528.563Q870.525 523.200 868.500 516.413Q866.475 509.625 866.475 500.925L866.475 500.925Q866.475 492.225 868.500 485.438Q870.525 478.650 873.862 473.287Q877.200 467.925 881.100 463.575L881.100 463.575L887.775 463.575L887.775 464.250Q883.275 469.125 879.900 474.637Q876.525 480.150 874.650 486.600Q872.775 493.050 872.775 500.925L872.775 500.925Q872.775 508.800 874.650 515.250Q876.525 521.700 879.900 527.212Q883.275 532.725 887.775 537.600L887.775 537.600L887.775 538.275ZM918.900 538.275L912.225 538.275L912.225 537.600Q916.725 532.725 920.100 527.212Q923.475 521.700 925.350 515.250Q927.225 508.800 927.225 500.925L927.225 500.925Q927.225 493.050 925.350 486.600Q923.475 480.150 920.100 474.637Q916.725 469.125 912.225 464.250L912.225 464.250L912.225 463.575L918.900 463.575Q922.800 467.925 926.138 473.287Q929.475 478.650 931.500 485.438Q933.525 492.225 933.525 500.925L933.525 500.925Q933.525 509.625 931.500 516.413Q929.475 523.200 926.138 528.563Q922.800 533.925 918.900 538.275L918.900 538.275ZM963.900 538.275L957.225 538.275L957.225 537.600Q961.725 532.725 965.100 527.212Q968.475 521.700 970.350 515.250Q972.225 508.800 972.225 500.925L972.225 500.925Q972.225 493.050 970.350 486.600Q968.475 480.150 965.100 474.637Q961.725 469.125 957.225 464.250L957.225 464.250L957.225 463.575L963.900 463.575Q967.800 467.925 971.138 473.287Q974.475 478.650 976.500 485.438Q978.525 492.225 978.525 500.925L978.525 500.925Q978.525 509.625 976.500 516.413Q974.475 523.200 971.138 528.563Q967.800 533.925 963.900 538.275L963.900 538.275ZM1008.900 538.275L1002.225 538.275L1002.225 537.600Q1006.725 532.725 1010.100 527.212Q1013.475 521.700 1015.350 515.250Q1017.225 508.800 1017.225 500.925L1017.225 500.925Q1017.225 493.050 1015.350 486.600Q1013.475 480.150 1010.100 474.637Q1006.725 469.125 1002.225 464.250L1002.225 464.250L1002.225 463.575L1008.900 463.575Q1012.800 467.925 1016.138 473.287Q1019.475 478.650 1021.500 485.438Q1023.525 492.225 1023.525 500.925L1023.525 500.925Q1023.525 509.625 1021.500 516.413Q1019.475 523.200 1016.138 528.563Q1012.800 533.925 1008.900 538.275L1008.900 538.275Z" />
      <path d="M389.025 580.650L389.025 580.650Q386.850 580.650 385.050 579.900Q383.250 579.150 381.712 578.175Q380.175 577.200 378.712 576.487Q377.250 575.775 375.750 575.775L375.750 575.775Q373.875 575.775 372.675 577.087Q371.475 578.400 371.250 580.650L371.250 580.650L365.925 580.650Q366.375 575.325 369.038 572.737Q371.700 570.150 375.975 570.150L375.975 570.150Q378.150 570.150 379.950 570.862Q381.750 571.575 383.288 572.550Q384.825 573.525 386.288 574.275Q387.750 575.025 389.250 575.025L389.250 575.025Q391.125 575.025 392.325 573.675Q393.525 572.325 393.750 570.150L393.750 570.150L399.075 570.150Q398.625 575.475 395.962 578.063Q393.300 580.650 389.025 580.650ZM434.025 580.650L434.025 580.650Q431.850 580.650 430.050 579.900Q428.250 579.150 426.712 578.175Q425.175 577.200 423.712 576.487Q422.250 575.775 420.750 575.775L420.750 575.775Q418.875 575.775 417.675 577.087Q416.475 578.400 416.250 580.650L416.250 580.650L410.925 580.650Q411.375 575.325 414.038 572.737Q416.700 570.150 420.975 570.150L420.975 570.150Q423.150 570.150 424.950 570.862Q426.750 571.575 428.288 572.550Q429.825 573.525 431.288 574.275Q432.750 575.025 434.250 575.025L434.250 575.025Q436.125 575.025 437.325 573.675Q438.525 572.325 438.750 570.150L438.750 570.150L444.075 570.150Q443.625 575.475 440.962 578.063Q438.300 580.650 434.025 580.650ZM479.025 580.650L479.025 580.650Q476.850 580.650 475.050 579.900Q473.250 579.150 471.712 578.175Q470.175 577.200 468.712 576.487Q467.250 575.775 465.750 575.775L465.750 575.775Q463.875 575.775 462.675 577.087Q461.475 578.400 461.250 580.650L461.250 580.650L455.925 580.650Q456.375 575.325 459.038 572.737Q461.700 570.150 465.975 570.150L465.975 570.150Q468.150 570.150 469.950 570.862Q471.750 571.575 473.288 572.550Q474.825 573.525 476.288 574.275Q477.750 575.025 479.250 575.025L479.250 575.025Q481.125 575.025 482.325 573.675Q483.525 572.325 483.750 570.150L483.750 570.150L489.075 570.150Q488.625 575.475 485.962 578.063Q483.300 580.650 479.025 580.650ZM524.025 580.650L524.025 580.650Q521.850 580.650 520.050 579.900Q518.250 579.150 516.712 578.175Q515.175 577.200 513.712 576.487Q512.250 575.775 510.750 575.775L510.750 575.775Q508.875 575.775 507.675 577.087Q506.475 578.400 506.250 580.650L506.250 580.650L500.925 580.650Q501.375 575.325 504.038 572.737Q506.700 570.150 510.975 570.150L510.975 570.150Q513.150 570.150 514.950 570.862Q516.750 571.575 518.288 572.550Q519.825 573.525 521.288 574.275Q522.750 575.025 524.250 575.025L524.250 575.025Q526.125 575.025 527.325 573.675Q528.525 572.325 528.750 570.150L528.750 570.150L534.075 570.150Q533.625 575.475 530.962 578.063Q528.300 580.650 524.025 580.650ZM621.600 613.275L614.400 613.275Q609 613.275 605.813 610.612Q602.625 607.950 602.625 602.100L602.625 602.100Q602.625 599.250 603.038 596.962Q603.450 594.675 603.862 592.050Q604.275 589.425 604.275 585.750L604.275 585.750Q604.275 582.525 602.587 580.612Q600.900 578.700 597.075 578.700L597.075 578.700L593.550 578.700L593.550 573.150L597.075 573.150Q600.900 573.150 602.587 571.237Q604.275 569.325 604.275 566.100L604.275 566.100Q604.275 562.350 603.862 559.762Q603.450 557.175 603.038 554.887Q602.625 552.600 602.625 549.750L602.625 549.750Q602.625 543.900 605.813 541.237Q609 538.575 614.400 538.575L614.400 538.575L621.600 538.575L621.600 544.125L615.075 544.125Q612 544.125 610.350 545.587Q608.700 547.050 608.700 550.425L608.700 550.425Q608.700 553.425 609.112 555.637Q609.525 557.850 609.938 560.137Q610.350 562.425 610.350 565.650L610.350 565.650Q610.350 569.625 608.625 572.212Q606.900 574.800 604.125 575.775L604.125 575.775L604.125 576.075Q606.900 577.050 608.625 579.637Q610.350 582.225 610.350 586.200L610.350 586.200Q610.350 589.425 609.938 591.712Q609.525 594 609.112 596.212Q608.700 598.425 608.700 601.425L608.700 601.425Q608.700 604.800 610.350 606.262Q612 607.725 615.075 607.725L615.075 607.725L621.600 607.725L621.600 613.275ZM669.375 605.175L635.625 605.175L635.625 599.400L669.375 599.400L669.375 605.175ZM754.875 575.850L730.125 575.850L730.125 570.450L754.875 570.450L754.875 575.850ZM804.375 605.175L770.625 605.175L770.625 599.400L804.375 599.400L804.375 605.175ZM842.775 613.275L836.100 613.275Q832.200 608.925 828.862 603.563Q825.525 598.200 823.500 591.413Q821.475 584.625 821.475 575.925L821.475 575.925Q821.475 567.225 823.500 560.438Q825.525 553.650 828.862 548.288Q832.200 542.925 836.100 538.575L836.100 538.575L842.775 538.575L842.775 539.250Q838.275 544.125 834.900 549.637Q831.525 555.150 829.650 561.600Q827.775 568.050 827.775 575.925L827.775 575.925Q827.775 583.800 829.650 590.250Q831.525 596.700 834.900 602.212Q838.275 607.725 842.775 612.600L842.775 612.600L842.775 613.275ZM887.775 613.275L881.100 613.275Q877.200 608.925 873.862 603.563Q870.525 598.200 868.500 591.413Q866.475 584.625 866.475 575.925L866.475 575.925Q866.475 567.225 868.500 560.438Q870.525 553.650 873.862 548.288Q877.200 542.925 881.100 538.575L881.100 538.575L887.775 538.575L887.775 539.250Q883.275 544.125 879.900 549.637Q876.525 555.150 874.650 561.600Q872.775 568.050 872.775 575.925L872.775 575.925Q872.775 583.800 874.650 590.250Q876.525 596.700 879.900 602.212Q883.275 607.725 887.775 612.600L887.775 612.600L887.775 613.275ZM918.900 613.275L912.225 613.275L912.225 612.600Q916.725 607.725 920.100 602.212Q923.475 596.700 925.350 590.250Q927.225 583.800 927.225 575.925L927.225 575.925Q927.225 568.050 925.350 561.600Q923.475 555.150 920.100 549.637Q916.725 544.125 912.225 539.250L912.225 539.250L912.225 538.575L918.900 538.575Q922.800 542.925 926.138 548.288Q929.475 553.650 931.500 560.438Q933.525 567.225 933.525 575.925L933.525 575.925Q933.525 584.625 931.500 591.413Q929.475 598.200 926.138 603.563Q922.800 608.925 918.900 613.275L918.900 613.275ZM963.900 613.275L957.225 613.275L957.225 612.600Q961.725 607.725 965.100 602.212Q968.475 596.700 970.350 590.250Q972.225 583.800 972.225 575.925L972.225 575.925Q972.225 568.050 970.350 561.600Q968.475 555.150 965.100 549.637Q961.725 544.125 957.225 539.250L957.225 539.250L957.225 538.575L963.900 538.575Q967.800 542.925 971.138 548.288Q974.475 553.650 976.500 560.438Q978.525 567.225 978.525 575.925L978.525 575.925Q978.525 584.625 976.500 591.413Q974.475 598.200 971.138 603.563Q967.800 608.925 963.900 613.275L963.900 613.275Z" />
      <path d="M705.375 628.275L705.375 634.200L689.625 626.325L689.625 619.875L705.375 628.275ZM758.775 681.150L752.250 681.150L726.225 617.400L732.825 617.400L758.775 681.150ZM870.600 688.275L863.400 688.275L863.400 682.725L869.925 682.725Q873 682.725 874.650 681.262Q876.300 679.800 876.300 676.425L876.300 676.425Q876.300 673.425 875.888 671.212Q875.475 669 875.063 666.712Q874.650 664.425 874.650 661.200L874.650 661.200Q874.650 657.225 876.375 654.637Q878.100 652.050 880.875 651.075L880.875 651.075L880.875 650.775Q878.100 649.800 876.375 647.212Q874.650 644.625 874.650 640.650L874.650 640.650Q874.650 637.425 875.063 635.137Q875.475 632.850 875.888 630.637Q876.300 628.425 876.300 625.425L876.300 625.425Q876.300 622.050 874.650 620.587Q873 619.125 869.925 619.125L869.925 619.125L863.400 619.125L863.400 613.575L870.600 613.575Q876 613.575 879.188 616.237Q882.375 618.900 882.375 624.750L882.375 624.750Q882.375 627.600 881.962 629.887Q881.550 632.175 881.138 634.762Q880.725 637.350 880.725 641.100L880.725 641.100Q880.725 644.325 882.413 646.237Q884.100 648.150 887.925 648.150L887.925 648.150L891.450 648.150L891.450 653.700L887.925 653.700Q884.100 653.700 882.413 655.612Q880.725 657.525 880.725 660.750L880.725 660.750Q880.725 664.425 881.138 667.050Q881.550 669.675 881.962 671.962Q882.375 674.250 882.375 677.100L882.375 677.100Q882.375 682.950 879.188 685.612Q876 688.275 870.600 688.275L870.600 688.275Z" />
      <path d="M801.600 763.275L794.400 763.275Q789 763.275 785.813 760.612Q782.625 757.950 782.625 752.100L782.625 752.100Q782.625 749.250 783.038 746.962Q783.450 744.675 783.862 742.050Q784.275 739.425 784.275 735.750L784.275 735.750Q784.275 732.525 782.587 730.612Q780.900 728.700 777.075 728.700L777.075 728.700L773.550 728.700L773.550 723.150L777.075 723.150Q780.900 723.150 782.587 721.237Q784.275 719.325 784.275 716.100L784.275 716.100Q784.275 712.350 783.862 709.762Q783.450 707.175 783.038 704.887Q782.625 702.600 782.625 699.750L782.625 699.750Q782.625 693.900 785.813 691.237Q789 688.575 794.400 688.575L794.400 688.575L801.600 688.575L801.600 694.125L795.075 694.125Q792 694.125 790.350 695.587Q788.700 697.050 788.700 700.425L788.700 700.425Q788.700 703.425 789.112 705.637Q789.525 707.850 789.938 710.137Q790.350 712.425 790.350 715.650L790.350 715.650Q790.350 719.625 788.625 722.212Q786.900 724.800 784.125 725.775L784.125 725.775L784.125 726.075Q786.900 727.050 788.625 729.637Q790.350 732.225 790.350 736.200L790.350 736.200Q790.350 739.425 789.938 741.712Q789.525 744 789.112 746.212Q788.700 748.425 788.700 751.425L788.700 751.425Q788.700 754.800 790.350 756.262Q792 757.725 795.075 757.725L795.075 757.725L801.600 757.725L801.600 763.275ZM870.600 763.275L863.400 763.275L863.400 757.725L869.925 757.725Q873 757.725 874.650 756.262Q876.300 754.800 876.300 751.425L876.300 751.425Q876.300 748.425 875.888 746.212Q875.475 744 875.063 741.712Q874.650 739.425 874.650 736.200L874.650 736.200Q874.650 732.225 876.375 729.637Q878.100 727.050 880.875 726.075L880.875 726.075L880.875 725.775Q878.100 724.800 876.375 722.212Q874.650 719.625 874.650 715.650L874.650 715.650Q874.650 712.425 875.063 710.137Q875.475 707.850 875.888 705.637Q876.300 703.425 876.300 700.425L876.300 700.425Q876.300 697.050 874.650 695.587Q873 694.125 869.925 694.125L869.925 694.125L863.400 694.125L863.400 688.575L870.600 688.575Q876 688.575 879.188 691.237Q882.375 693.900 882.375 699.750L882.375 699.750Q882.375 702.600 881.962 704.887Q881.550 707.175 881.138 709.762Q880.725 712.350 880.725 716.100L880.725 716.100Q880.725 719.325 882.413 721.237Q884.100 723.150 887.925 723.150L887.925 723.150L891.450 723.150L891.450 728.700L887.925 728.700Q884.100 728.700 882.413 730.612Q880.725 732.525 880.725 735.750L880.725 735.750Q880.725 739.425 881.138 742.050Q881.550 744.675 881.962 746.962Q882.375 749.250 882.375 752.100L882.375 752.100Q882.375 757.950 879.188 760.612Q876 763.275 870.600 763.275L870.600 763.275Z" />
  </g>
</svg>