<svg width="2441.5" height="470.125" viewBox="-2 -2 2441.5 470.125" xmlns="http://www.w3.org/2000/svg">
  <g id="svgGroup" stroke-linecap="round" fill-rule="nonzero" fill="#ffffff" stroke="#ffffff" stroke-width="0.5">
      <path d="M540 89.438L540 83.625L581.250 83.625L581.250 89.438L540 89.438ZM590.100 66.750L590.100 66.750Q590.100 65.475 590.587 64.350Q591.075 63.225 591.919 62.381Q592.763 61.538 593.869 61.050Q594.975 60.563 596.250 60.563L596.250 60.563Q597.525 60.563 598.650 61.050Q599.775 61.538 600.619 62.381Q601.462 63.225 601.950 64.350Q602.438 65.475 602.438 66.750L602.438 66.750Q602.438 68.025 601.950 69.169Q601.462 70.313 600.638 71.156Q599.813 72 598.706 72.506Q597.600 73.013 596.325 73.013L596.325 73.013Q595.050 73.013 593.906 72.506Q592.763 72 591.919 71.156Q591.075 70.313 590.587 69.169Q590.100 68.025 590.100 66.750ZM641.250 51.375L641.250 46.125L671.250 46.125L671.250 51.375L641.250 51.375ZM641.250 62.625L641.250 57.375L671.250 57.375L671.250 62.625L641.250 62.625ZM690 51.375L690 46.125L720 46.125L720 51.375L690 51.375ZM690 62.625L690 57.375L720 57.375L720 62.625L690 62.625ZM738.750 51.375L738.750 46.125L768.750 46.125L768.750 51.375L738.750 51.375ZM738.750 62.625L738.750 57.375L768.750 57.375L768.750 62.625L738.750 62.625ZM787.500 51.375L787.500 46.125L817.500 46.125L817.500 51.375L787.500 51.375ZM787.500 62.625L787.500 57.375L817.500 57.375L817.500 62.625L787.500 62.625ZM833.850 66.750L833.850 66.750Q833.850 65.475 834.337 64.350Q834.825 63.225 835.669 62.381Q836.513 61.538 837.619 61.050Q838.725 60.563 840 60.563L840 60.563Q841.275 60.563 842.400 61.050Q843.525 61.538 844.369 62.381Q845.212 63.225 845.700 64.350Q846.188 65.475 846.188 66.750L846.188 66.750Q846.188 68.025 845.700 69.169Q845.212 70.313 844.388 71.156Q843.563 72 842.456 72.506Q841.350 73.013 840.075 73.013L840.075 73.013Q838.800 73.013 837.656 72.506Q836.513 72 835.669 71.156Q834.825 70.313 834.337 69.169Q833.850 68.025 833.850 66.750ZM882.600 66.750L882.600 66.750Q882.600 65.475 883.087 64.350Q883.575 63.225 884.419 62.381Q885.263 61.538 886.369 61.050Q887.475 60.563 888.750 60.563L888.750 60.563Q890.025 60.563 891.150 61.050Q892.275 61.538 893.119 62.381Q893.962 63.225 894.450 64.350Q894.938 65.475 894.938 66.750L894.938 66.750Q894.938 68.025 894.450 69.169Q893.962 70.313 893.138 71.156Q892.313 72 891.206 72.506Q890.100 73.013 888.825 73.013L888.825 73.013Q887.550 73.013 886.406 72.506Q885.263 72 884.419 71.156Q883.575 70.313 883.087 69.169Q882.600 68.025 882.600 66.750ZM930 89.438L930 83.625L971.250 83.625L971.250 89.438L930 89.438Z" />
      <path d="M444.450 142.613L444.450 142.613Q444.450 141.525 444.881 140.531Q445.313 139.537 446.081 138.825Q446.850 138.113 447.863 137.662Q448.875 137.213 450 137.213L450 137.213Q451.087 137.213 452.081 137.606Q453.075 138 453.844 138.750Q454.613 139.500 455.081 140.644Q455.550 141.787 455.550 143.250L455.550 143.250Q455.550 145.238 455.306 147.094Q455.063 148.950 454.294 150.863Q453.525 152.775 452.100 154.762Q450.675 156.750 448.350 158.887L448.350 158.887L446.400 158.025Q447.262 156.375 447.938 154.613L447.938 154.613Q448.500 153.150 448.969 151.406Q449.438 149.662 449.438 148.012L449.438 148.012Q448.500 147.975 447.600 147.600Q446.700 147.225 445.988 146.569Q445.275 145.912 444.863 144.900Q444.450 143.887 444.450 142.613ZM493.200 142.387L493.200 142.387Q493.200 141.225 493.650 140.213Q494.100 139.200 494.850 138.450Q495.600 137.700 496.594 137.269Q497.587 136.838 498.750 136.838L498.750 136.838Q499.913 136.838 500.925 137.269Q501.938 137.700 502.688 138.450Q503.438 139.200 503.869 140.213Q504.300 141.225 504.300 142.387L504.300 142.387Q504.300 143.550 503.869 144.581Q503.438 145.613 502.688 146.363Q501.938 147.113 500.944 147.563Q499.950 148.012 498.825 148.012L498.825 148.012Q497.663 148.012 496.631 147.563Q495.600 147.113 494.850 146.363Q494.100 145.613 493.650 144.581Q493.200 143.550 493.200 142.387ZM493.200 123.112L493.200 123.112Q493.200 121.950 493.650 120.938Q494.100 119.925 494.850 119.175Q495.600 118.425 496.594 117.994Q497.587 117.563 498.750 117.563L498.750 117.563Q499.913 117.563 500.925 117.994Q501.938 118.425 502.688 119.175Q503.438 119.925 503.869 120.938Q504.300 121.950 504.300 123.112L504.300 123.112Q504.300 124.275 503.869 125.306Q503.438 126.338 502.688 127.088Q501.938 127.838 500.944 128.287Q499.950 128.738 498.825 128.738L498.825 128.738Q497.663 128.738 496.631 128.287Q495.600 127.838 494.850 127.088Q494.100 126.338 493.650 125.306Q493.200 124.275 493.200 123.112ZM541.350 141.750L541.350 141.750Q541.350 140.475 541.837 139.350Q542.325 138.225 543.169 137.381Q544.013 136.537 545.119 136.050Q546.225 135.563 547.500 135.563L547.500 135.563Q548.775 135.563 549.900 136.050Q551.025 136.537 551.869 137.381Q552.712 138.225 553.200 139.350Q553.688 140.475 553.688 141.750L553.688 141.750Q553.688 143.025 553.200 144.169Q552.712 145.313 551.888 146.156Q551.063 147 549.956 147.506Q548.850 148.012 547.575 148.012L547.575 148.012Q546.300 148.012 545.156 147.506Q544.013 147 543.169 146.156Q542.325 145.313 541.837 144.169Q541.350 143.025 541.350 141.750ZM588.750 164.438L588.750 158.625L630 158.625L630 164.438L588.750 164.438ZM985.575 129.825L979.987 129.225Q980.400 127.125 981.581 124.969Q982.763 122.813 984.450 121.088Q986.138 119.362 988.237 118.275Q990.337 117.188 992.663 117.188L992.663 117.188Q994.350 117.188 995.700 117.694Q997.050 118.200 998.156 118.931Q999.263 119.662 1000.237 120.544Q1001.212 121.425 1002.225 122.156Q1003.237 122.888 1004.325 123.394Q1005.413 123.900 1006.763 123.900L1006.763 123.900Q1008.112 123.900 1009.200 123.338Q1010.288 122.775 1011.075 121.894Q1011.862 121.013 1012.406 119.906Q1012.950 118.800 1013.250 117.675L1013.250 117.675L1018.725 118.275Q1018.350 120.600 1017.244 122.963Q1016.138 125.325 1014.450 127.237Q1012.763 129.150 1010.550 130.350Q1008.337 131.550 1005.825 131.550L1005.825 131.550Q1004.475 131.550 1003.275 131.044Q1002.075 130.537 1000.969 129.806Q999.862 129.075 998.794 128.194Q997.725 127.313 996.619 126.581Q995.513 125.850 994.313 125.344Q993.112 124.838 991.763 124.838L991.763 124.838Q990.600 124.838 989.606 125.250Q988.612 125.662 987.825 126.356Q987.038 127.050 986.475 127.950Q985.913 128.850 985.575 129.825L985.575 129.825ZM1038.750 130.688L1038.750 124.875L1057.500 124.875L1057.500 130.688L1038.750 130.688ZM1076.250 164.438L1076.250 158.625L1117.500 158.625L1117.500 164.438L1076.250 164.438Z" />
      <path d="M659.587 165.375L666 177.375L660.375 177.375L651.938 166.125L659.587 165.375ZM715.313 226.125L689.063 162.375L696.563 162.375L723.188 226.125L715.313 226.125ZM1131.825 204.825L1126.237 204.225Q1126.650 202.125 1127.831 199.969Q1129.013 197.813 1130.700 196.088Q1132.388 194.363 1134.487 193.275Q1136.588 192.188 1138.912 192.188L1138.912 192.188Q1140.600 192.188 1141.950 192.694Q1143.300 193.200 1144.406 193.931Q1145.513 194.662 1146.487 195.544Q1147.463 196.425 1148.475 197.156Q1149.487 197.887 1150.575 198.394Q1151.662 198.900 1153.013 198.900L1153.013 198.900Q1154.362 198.900 1155.450 198.338Q1156.537 197.775 1157.325 196.894Q1158.112 196.012 1158.656 194.906Q1159.200 193.800 1159.500 192.675L1159.500 192.675L1164.975 193.275Q1164.600 195.600 1163.494 197.963Q1162.388 200.325 1160.700 202.238Q1159.013 204.150 1156.800 205.350Q1154.588 206.550 1152.075 206.550L1152.075 206.550Q1150.725 206.550 1149.525 206.044Q1148.325 205.537 1147.219 204.806Q1146.112 204.075 1145.044 203.194Q1143.975 202.313 1142.869 201.581Q1141.763 200.850 1140.563 200.344Q1139.362 199.838 1138.013 199.838L1138.013 199.838Q1136.850 199.838 1135.856 200.250Q1134.862 200.662 1134.075 201.356Q1133.287 202.050 1132.725 202.950Q1132.162 203.850 1131.825 204.825L1131.825 204.825ZM1185 205.688L1185 199.875L1203.750 199.875L1203.750 205.688L1185 205.688ZM1222.500 239.438L1222.500 233.625L1263.750 233.625L1263.750 239.438L1222.500 239.438Z" />
      <path d="M750 241.125L757.500 240.375L757.500 312.375L750 312.375L750 241.125ZM832.500 314.438L832.500 308.625L873.750 308.625L873.750 314.438L832.500 314.438ZM978.750 314.438L978.750 308.625L1020 308.625L1020 314.438L978.750 314.438ZM1140 241.125L1147.500 240.375L1147.500 312.375L1140 312.375L1140 241.125ZM1293.338 240.375L1299.750 252.375L1294.125 252.375L1285.688 241.125L1293.338 240.375ZM1321.350 291.750L1321.350 291.750Q1321.350 290.475 1321.838 289.350Q1322.325 288.225 1323.169 287.381Q1324.013 286.538 1325.119 286.050Q1326.225 285.563 1327.500 285.563L1327.500 285.563Q1328.775 285.563 1329.900 286.050Q1331.025 286.538 1331.869 287.381Q1332.713 288.225 1333.200 289.350Q1333.688 290.475 1333.688 291.750L1333.688 291.750Q1333.688 293.025 1333.200 294.169Q1332.713 295.313 1331.888 296.156Q1331.063 297 1329.956 297.506Q1328.850 298.012 1327.575 298.012L1327.575 298.012Q1326.300 298.012 1325.156 297.506Q1324.013 297 1323.169 296.156Q1322.325 295.313 1321.838 294.169Q1321.350 293.025 1321.350 291.750Z" />
      <path d="M639.450 367.613L639.450 367.613Q639.450 366.525 639.881 365.531Q640.313 364.538 641.081 363.825Q641.850 363.113 642.862 362.663Q643.875 362.212 645 362.212L645 362.212Q646.087 362.212 647.081 362.606Q648.075 363 648.844 363.750Q649.612 364.500 650.081 365.644Q650.550 366.788 650.550 368.250L650.550 368.250Q650.550 370.238 650.306 372.094Q650.063 373.950 649.294 375.863Q648.525 377.775 647.100 379.762Q645.675 381.750 643.350 383.887L643.350 383.887L641.400 383.025Q642.263 381.375 642.938 379.613L642.938 379.613Q643.500 378.150 643.969 376.406Q644.438 374.663 644.438 373.012L644.438 373.012Q643.500 372.975 642.600 372.600Q641.700 372.225 640.987 371.569Q640.275 370.913 639.862 369.900Q639.450 368.887 639.450 367.613ZM723.188 312.375L696.938 376.125L689.063 376.125L715.688 312.375L723.188 312.375ZM820.688 312.375L794.438 376.125L786.563 376.125L813.188 312.375L820.688 312.375ZM832.500 389.438L832.500 383.625L873.750 383.625L873.750 389.438L832.500 389.438ZM911.212 328.125L911.212 372.375Q911.212 375.712 910.875 378.600Q910.538 381.488 909.394 383.606Q908.250 385.725 906.019 386.925Q903.788 388.125 899.962 388.125L899.962 388.125Q899.212 388.125 898.444 388.069Q897.675 388.012 896.981 387.881Q896.288 387.750 895.688 387.581Q895.087 387.413 894.750 387.188L894.750 387.188L897.337 382.462L897.862 382.575Q898.125 382.613 898.462 382.631Q898.800 382.650 899.212 382.650L899.212 382.650Q900.862 382.650 901.781 381.863Q902.700 381.075 903.131 379.725Q903.563 378.375 903.638 376.613Q903.712 374.850 903.712 372.900L903.712 372.900L903.712 327.600Q903.712 325.650 903.638 323.887Q903.563 322.125 903.131 320.775Q902.700 319.425 901.781 318.637Q900.862 317.850 899.212 317.850L899.212 317.850Q898.800 317.850 898.462 317.887Q898.125 317.925 897.862 317.962L897.862 317.962L897.337 318.038L894.750 313.313Q895.087 313.087 895.688 312.919Q896.288 312.750 896.981 312.619Q897.675 312.488 898.444 312.431Q899.212 312.375 899.962 312.375L899.962 312.375Q903.788 312.375 906.019 313.575Q908.250 314.775 909.394 316.894Q910.538 319.012 910.875 321.900Q911.212 324.788 911.212 328.125L911.212 328.125ZM966.938 312.375L940.688 376.125L932.813 376.125L959.438 312.375L966.938 312.375ZM1042.500 316.125L1050 315.375L1050 387.375L1042.500 387.375L1042.500 316.125ZM1140 316.125L1147.500 315.375L1147.500 387.375L1140 387.375L1140 316.125ZM1375.575 354.825L1369.987 354.225Q1370.400 352.125 1371.581 349.969Q1372.763 347.813 1374.450 346.087Q1376.138 344.363 1378.237 343.275Q1380.338 342.188 1382.662 342.188L1382.662 342.188Q1384.350 342.188 1385.700 342.694Q1387.050 343.200 1388.156 343.931Q1389.263 344.663 1390.237 345.544Q1391.213 346.425 1392.225 347.156Q1393.237 347.887 1394.325 348.394Q1395.412 348.900 1396.763 348.900L1396.763 348.900Q1398.112 348.900 1399.200 348.337Q1400.287 347.775 1401.075 346.894Q1401.862 346.012 1402.406 344.906Q1402.950 343.800 1403.250 342.675L1403.250 342.675L1408.725 343.275Q1408.350 345.600 1407.244 347.962Q1406.138 350.325 1404.450 352.238Q1402.763 354.150 1400.550 355.350Q1398.338 356.550 1395.825 356.550L1395.825 356.550Q1394.475 356.550 1393.275 356.044Q1392.075 355.538 1390.969 354.806Q1389.862 354.075 1388.794 353.194Q1387.725 352.313 1386.619 351.581Q1385.513 350.850 1384.313 350.344Q1383.112 349.837 1381.763 349.837L1381.763 349.837Q1380.600 349.837 1379.606 350.250Q1378.612 350.663 1377.825 351.356Q1377.037 352.050 1376.475 352.950Q1375.912 353.850 1375.575 354.825L1375.575 354.825ZM1428.750 355.688L1428.750 349.875L1447.500 349.875L1447.500 355.688L1428.750 355.688ZM1466.250 389.438L1466.250 383.625L1507.500 383.625L1507.500 389.438L1466.250 389.438Z" />
      <path d="M210 430.688L210 424.875L228.750 424.875L228.750 430.688L210 430.688ZM248.850 441.750L248.850 441.750Q248.850 440.475 249.338 439.350Q249.825 438.225 250.669 437.381Q251.512 436.538 252.619 436.050Q253.725 435.563 255 435.563L255 435.563Q256.275 435.563 257.400 436.050Q258.525 436.538 259.369 437.381Q260.212 438.225 260.700 439.350Q261.188 440.475 261.188 441.750L261.188 441.750Q261.188 443.025 260.700 444.169Q260.212 445.313 259.387 446.156Q258.563 447 257.456 447.506Q256.350 448.012 255.075 448.012L255.075 448.012Q253.800 448.012 252.656 447.506Q251.512 447 250.669 446.156Q249.825 445.313 249.338 444.169Q248.850 443.025 248.850 441.750ZM297.600 441.750L297.600 441.750Q297.600 440.475 298.087 439.350Q298.575 438.225 299.419 437.381Q300.262 436.538 301.369 436.050Q302.475 435.563 303.750 435.563L303.750 435.563Q305.025 435.563 306.150 436.050Q307.275 436.538 308.119 437.381Q308.962 438.225 309.450 439.350Q309.938 440.475 309.938 441.750L309.938 441.750Q309.938 443.025 309.450 444.169Q308.962 445.313 308.137 446.156Q307.313 447 306.206 447.506Q305.100 448.012 303.825 448.012L303.825 448.012Q302.550 448.012 301.406 447.506Q300.262 447 299.419 446.156Q298.575 445.313 298.087 444.169Q297.600 443.025 297.600 441.750ZM345 464.438L345 458.625L386.250 458.625L386.250 464.438L345 464.438ZM393.750 464.438L393.750 458.625L435 458.625L435 464.438L393.750 464.438ZM443.850 441.750L443.850 441.750Q443.850 440.475 444.337 439.350Q444.825 438.225 445.669 437.381Q446.512 436.538 447.619 436.050Q448.725 435.563 450 435.563L450 435.563Q451.275 435.563 452.400 436.050Q453.525 436.538 454.369 437.381Q455.212 438.225 455.700 439.350Q456.188 440.475 456.188 441.750L456.188 441.750Q456.188 443.025 455.700 444.169Q455.212 445.313 454.387 446.156Q453.563 447 452.456 447.506Q451.350 448.012 450.075 448.012L450.075 448.012Q448.800 448.012 447.656 447.506Q446.512 447 445.669 446.156Q444.825 445.313 444.337 444.169Q443.850 443.025 443.850 441.750ZM492.600 441.750L492.600 441.750Q492.600 440.475 493.087 439.350Q493.575 438.225 494.419 437.381Q495.262 436.538 496.369 436.050Q497.475 435.563 498.750 435.563L498.750 435.563Q500.025 435.563 501.150 436.050Q502.275 436.538 503.119 437.381Q503.962 438.225 504.450 439.350Q504.938 440.475 504.938 441.750L504.938 441.750Q504.938 443.025 504.450 444.169Q503.962 445.313 503.137 446.156Q502.313 447 501.206 447.506Q500.100 448.012 498.825 448.012L498.825 448.012Q497.550 448.012 496.406 447.506Q495.262 447 494.419 446.156Q493.575 445.313 493.087 444.169Q492.600 443.025 492.600 441.750ZM551.250 430.688L551.250 424.875L570 424.875L570 430.688L551.250 430.688ZM593.438 394.875L593.438 391.125L600 391.125L600 394.875Q600 397.688 598.669 400.875Q597.337 404.063 594.712 407.363L594.712 407.363L592.500 407.363Q592.837 405.488 593.044 403.837Q593.250 402.188 593.325 400.669Q593.400 399.150 593.419 397.725Q593.438 396.300 593.438 394.875L593.438 394.875ZM642.188 394.875L642.188 391.125L648.750 391.125L648.750 394.875Q648.750 397.688 647.419 400.875Q646.087 404.063 643.462 407.363L643.462 407.363L641.250 407.363Q641.587 405.488 641.794 403.837Q642 402.188 642.075 400.669Q642.150 399.150 642.169 397.725Q642.188 396.300 642.188 394.875L642.188 394.875ZM812.813 451.125L786.563 387.375L794.063 387.375L820.688 451.125L812.813 451.125ZM832.500 464.438L832.500 458.625L873.750 458.625L873.750 464.438L832.500 464.438ZM959.063 451.125L932.813 387.375L940.313 387.375L966.938 451.125L959.063 451.125ZM978.750 464.438L978.750 458.625L1020 458.625L1020 464.438L978.750 464.438ZM1056.563 451.125L1030.313 387.375L1037.813 387.375L1064.438 451.125L1056.563 451.125ZM1147.088 390.375L1153.500 402.375L1147.875 402.375L1139.438 391.125L1147.088 390.375ZM1173.750 464.438L1173.750 458.625L1215 458.625L1215 464.438L1173.750 464.438ZM1521.825 429.825L1516.237 429.225Q1516.650 427.125 1517.831 424.969Q1519.013 422.813 1520.700 421.087Q1522.388 419.363 1524.487 418.275Q1526.588 417.188 1528.912 417.188L1528.912 417.188Q1530.600 417.188 1531.950 417.694Q1533.300 418.200 1534.406 418.931Q1535.513 419.663 1536.487 420.544Q1537.463 421.425 1538.475 422.156Q1539.487 422.887 1540.575 423.394Q1541.662 423.900 1543.013 423.900L1543.013 423.900Q1544.362 423.900 1545.450 423.337Q1546.537 422.775 1547.325 421.894Q1548.112 421.012 1548.656 419.906Q1549.200 418.800 1549.500 417.675L1549.500 417.675L1554.975 418.275Q1554.600 420.600 1553.494 422.962Q1552.388 425.325 1550.700 427.238Q1549.013 429.150 1546.800 430.350Q1544.588 431.550 1542.075 431.550L1542.075 431.550Q1540.725 431.550 1539.525 431.044Q1538.325 430.538 1537.219 429.806Q1536.112 429.075 1535.044 428.194Q1533.975 427.313 1532.869 426.581Q1531.763 425.850 1530.563 425.344Q1529.362 424.837 1528.013 424.837L1528.013 424.837Q1526.850 424.837 1525.856 425.250Q1524.862 425.663 1524.075 426.356Q1523.287 427.050 1522.725 427.950Q1522.162 428.850 1521.825 429.825L1521.825 429.825ZM1570.575 429.825L1564.987 429.225Q1565.400 427.125 1566.581 424.969Q1567.763 422.813 1569.450 421.087Q1571.138 419.363 1573.237 418.275Q1575.338 417.188 1577.662 417.188L1577.662 417.188Q1579.350 417.188 1580.700 417.694Q1582.050 418.200 1583.156 418.931Q1584.263 419.663 1585.237 420.544Q1586.213 421.425 1587.225 422.156Q1588.237 422.887 1589.325 423.394Q1590.412 423.900 1591.763 423.900L1591.763 423.900Q1593.112 423.900 1594.200 423.337Q1595.287 422.775 1596.075 421.894Q1596.862 421.012 1597.406 419.906Q1597.950 418.800 1598.250 417.675L1598.250 417.675L1603.725 418.275Q1603.350 420.600 1602.244 422.962Q1601.138 425.325 1599.450 427.238Q1597.763 429.150 1595.550 430.350Q1593.338 431.550 1590.825 431.550L1590.825 431.550Q1589.475 431.550 1588.275 431.044Q1587.075 430.538 1585.969 429.806Q1584.862 429.075 1583.794 428.194Q1582.725 427.313 1581.619 426.581Q1580.513 425.850 1579.313 425.344Q1578.112 424.837 1576.763 424.837L1576.763 424.837Q1575.600 424.837 1574.606 425.250Q1573.612 425.663 1572.825 426.356Q1572.037 427.050 1571.475 427.950Q1570.912 428.850 1570.575 429.825L1570.575 429.825ZM1623.750 430.688L1623.750 424.875L1642.500 424.875L1642.500 430.688L1623.750 430.688ZM1672.500 430.688L1672.500 424.875L1691.250 424.875L1691.250 430.688L1672.500 430.688ZM1711.350 441.750L1711.350 441.750Q1711.350 440.475 1711.838 439.350Q1712.325 438.225 1713.169 437.381Q1714.013 436.538 1715.119 436.050Q1716.225 435.563 1717.500 435.563L1717.500 435.563Q1718.775 435.563 1719.900 436.050Q1721.025 436.538 1721.869 437.381Q1722.713 438.225 1723.200 439.350Q1723.688 440.475 1723.688 441.750L1723.688 441.750Q1723.688 443.025 1723.200 444.169Q1722.713 445.313 1721.888 446.156Q1721.063 447 1719.956 447.506Q1718.850 448.012 1717.575 448.012L1717.575 448.012Q1716.300 448.012 1715.156 447.506Q1714.013 447 1713.169 446.156Q1712.325 445.313 1711.838 444.169Q1711.350 443.025 1711.350 441.750ZM1760.100 441.750L1760.100 441.750Q1760.100 440.475 1760.588 439.350Q1761.075 438.225 1761.919 437.381Q1762.763 436.538 1763.869 436.050Q1764.975 435.563 1766.250 435.563L1766.250 435.563Q1767.525 435.563 1768.650 436.050Q1769.775 436.538 1770.619 437.381Q1771.463 438.225 1771.950 439.350Q1772.438 440.475 1772.438 441.750L1772.438 441.750Q1772.438 443.025 1771.950 444.169Q1771.463 445.313 1770.638 446.156Q1769.813 447 1768.706 447.506Q1767.600 448.012 1766.325 448.012L1766.325 448.012Q1765.050 448.012 1763.906 447.506Q1762.763 447 1761.919 446.156Q1761.075 445.313 1760.588 444.169Q1760.100 443.025 1760.100 441.750ZM1807.500 464.438L1807.500 458.625L1848.750 458.625L1848.750 464.438L1807.500 464.438ZM1856.250 464.438L1856.250 458.625L1897.500 458.625L1897.500 464.438L1856.250 464.438ZM1906.350 441.750L1906.350 441.750Q1906.350 440.475 1906.838 439.350Q1907.325 438.225 1908.169 437.381Q1909.013 436.538 1910.119 436.050Q1911.225 435.563 1912.500 435.563L1912.500 435.563Q1913.775 435.563 1914.900 436.050Q1916.025 436.538 1916.869 437.381Q1917.713 438.225 1918.200 439.350Q1918.688 440.475 1918.688 441.750L1918.688 441.750Q1918.688 443.025 1918.200 444.169Q1917.713 445.313 1916.888 446.156Q1916.063 447 1914.956 447.506Q1913.850 448.012 1912.575 448.012L1912.575 448.012Q1911.300 448.012 1910.156 447.506Q1909.013 447 1908.169 446.156Q1907.325 445.313 1906.838 444.169Q1906.350 443.025 1906.350 441.750ZM1955.100 441.750L1955.100 441.750Q1955.100 440.475 1955.588 439.350Q1956.075 438.225 1956.919 437.381Q1957.763 436.538 1958.869 436.050Q1959.975 435.563 1961.250 435.563L1961.250 435.563Q1962.525 435.563 1963.650 436.050Q1964.775 436.538 1965.619 437.381Q1966.463 438.225 1966.950 439.350Q1967.438 440.475 1967.438 441.750L1967.438 441.750Q1967.438 443.025 1966.950 444.169Q1966.463 445.313 1965.638 446.156Q1964.813 447 1963.706 447.506Q1962.600 448.012 1961.325 448.012L1961.325 448.012Q1960.050 448.012 1958.906 447.506Q1957.763 447 1956.919 446.156Q1956.075 445.313 1955.588 444.169Q1955.100 443.025 1955.100 441.750ZM2003.850 441.750L2003.850 441.750Q2003.850 440.475 2004.338 439.350Q2004.825 438.225 2005.669 437.381Q2006.513 436.538 2007.619 436.050Q2008.725 435.563 2010 435.563L2010 435.563Q2011.275 435.563 2012.400 436.050Q2013.525 436.538 2014.369 437.381Q2015.213 438.225 2015.700 439.350Q2016.188 440.475 2016.188 441.750L2016.188 441.750Q2016.188 443.025 2015.700 444.169Q2015.213 445.313 2014.388 446.156Q2013.563 447 2012.456 447.506Q2011.350 448.012 2010.075 448.012L2010.075 448.012Q2008.800 448.012 2007.656 447.506Q2006.513 447 2005.669 446.156Q2004.825 445.313 2004.338 444.169Q2003.850 443.025 2003.850 441.750ZM2062.500 430.688L2062.500 424.875L2081.250 424.875L2081.250 430.688L2062.500 430.688ZM2111.250 430.688L2111.250 424.875L2130 424.875L2130 430.688L2111.250 430.688ZM2160 430.688L2160 424.875L2178.750 424.875L2178.750 430.688L2160 430.688ZM2208.750 430.688L2208.750 424.875L2227.500 424.875L2227.500 430.688L2208.750 430.688ZM2247.600 441.750L2247.600 441.750Q2247.600 440.475 2248.088 439.350Q2248.575 438.225 2249.419 437.381Q2250.262 436.538 2251.369 436.050Q2252.475 435.563 2253.750 435.563L2253.750 435.563Q2255.025 435.563 2256.150 436.050Q2257.275 436.538 2258.119 437.381Q2258.963 438.225 2259.450 439.350Q2259.938 440.475 2259.938 441.750L2259.938 441.750Q2259.938 443.025 2259.450 444.169Q2258.963 445.313 2258.137 446.156Q2257.313 447 2256.206 447.506Q2255.100 448.012 2253.825 448.012L2253.825 448.012Q2252.550 448.012 2251.406 447.506Q2250.262 447 2249.419 446.156Q2248.575 445.313 2248.088 444.169Q2247.600 443.025 2247.600 441.750ZM2296.350 441.750L2296.350 441.750Q2296.350 440.475 2296.838 439.350Q2297.325 438.225 2298.169 437.381Q2299.012 436.538 2300.119 436.050Q2301.225 435.563 2302.500 435.563L2302.500 435.563Q2303.775 435.563 2304.900 436.050Q2306.025 436.538 2306.869 437.381Q2307.713 438.225 2308.200 439.350Q2308.688 440.475 2308.688 441.750L2308.688 441.750Q2308.688 443.025 2308.200 444.169Q2307.713 445.313 2306.887 446.156Q2306.063 447 2304.956 447.506Q2303.850 448.012 2302.575 448.012L2302.575 448.012Q2301.300 448.012 2300.156 447.506Q2299.012 447 2298.169 446.156Q2297.325 445.313 2296.838 444.169Q2296.350 443.025 2296.350 441.750ZM2345.100 441.750L2345.100 441.750Q2345.100 440.475 2345.588 439.350Q2346.075 438.225 2346.919 437.381Q2347.762 436.538 2348.869 436.050Q2349.975 435.563 2351.250 435.563L2351.250 435.563Q2352.525 435.563 2353.650 436.050Q2354.775 436.538 2355.619 437.381Q2356.463 438.225 2356.950 439.350Q2357.438 440.475 2357.438 441.750L2357.438 441.750Q2357.438 443.025 2356.950 444.169Q2356.463 445.313 2355.637 446.156Q2354.813 447 2353.706 447.506Q2352.600 448.012 2351.325 448.012L2351.325 448.012Q2350.050 448.012 2348.906 447.506Q2347.762 447 2346.919 446.156Q2346.075 445.313 2345.588 444.169Q2345.100 443.025 2345.100 441.750Z" />
  </g>
</svg>